<svg width="20" height="20" viewBox="0 0 20 20" fill="none" xmlns="http://www.w3.org/2000/svg">
<path d="M1.66669 10C1.66669 14.5993 5.40073 18.3334 10 18.3334C14.5993 18.3334 18.3334 14.5993 18.3334 10C18.3334 5.40073 14.5993 1.66669 10 1.66669C5.40073 1.66669 1.66669 5.40073 1.66669 10V10" stroke="#0F1724" stroke-width="1.66667" stroke-linecap="round" stroke-linejoin="round"/>
<path d="M6.66669 10C6.66669 11.8397 8.1603 13.3334 10 13.3334C11.8397 13.3334 13.3334 11.8397 13.3334 10C13.3334 8.1603 11.8397 6.66669 10 6.66669C8.1603 6.66669 6.66669 8.1603 6.66669 10V10" stroke="#0F1724" stroke-width="1.66667" stroke-linecap="round" stroke-linejoin="round"/>
<path d="M17.6417 6.66665H10M3.29169 5.04999L7.11669 11.6667M9.06669 18.2833L12.8834 11.6667" stroke="#0F1724" stroke-width="1.66667" stroke-linecap="round" stroke-linejoin="round"/>
</svg>
